# xmcd
#
# Track frame offsets:
#	150
#	14080
#	33063
#	56198
#
# Disc length: 986 seconds
#
# Revision: 0
# Processed by: cddbd v1.5.2PL0 Copyright (c) Steve Scherf et al.
# Submitted via: dBpowerAMP V4.0
#
DISCID=2e03d804
DTITLE=Kimber Sparks - Go Get 'em Girl
DYEAR=2005
DGENRE=Country
TTITLE0=G Get 'em Girl
TTITLE1=I Think I'll Have Another Beer
TTITLE2=Taking The You Out of Us
TTITLE3=Somewhere Between
EXTD=
EXTT0=
EXTT1=
EXTT2=
EXTT3=
PLAYORDER=
